<?xml version="1.0" standalone="no"?>
<!DOCTYPE svg PUBLIC "-//W3C//DTD SVG 20010904//EN"
 "http://www.w3.org/TR/2001/REC-SVG-20010904/DTD/svg10.dtd">
<svg version="1.0" xmlns="http://www.w3.org/2000/svg"
 width="512.000000pt" height="512.000000pt" viewBox="0 0 512.000000 512.000000"
 preserveAspectRatio="xMidYMid meet">
<metadata>
Created by potrace 1.14, written by Peter Selinger 2001-2017
</metadata>
<g transform="translate(0.000000,512.000000) scale(0.100000,-0.100000)"
fill="#000000" stroke="none">
<path d="M2379 5116 c-2 -2 -40 -6 -83 -10 -44 -4 -82 -9 -85 -11 -4 -2 -34
-7 -66 -10 -86 -10 -312 -68 -434 -110 -710 -248 -1288 -815 -1549 -1520 -39
-105 -86 -261 -96 -315 -2 -14 -9 -46 -15 -71 -6 -25 -13 -61 -15 -80 -3 -19
-7 -50 -10 -69 -37 -217 -28 -577 19 -830 92 -496 332 -961 678 -1311 l28 -28
277 277 c152 153 283 285 290 295 12 14 6 25 -52 89 -36 40 -84 98 -105 128
-51 71 -124 190 -119 195 2 2 53 7 113 10 61 4 126 8 145 10 19 2 87 7 150 10
63 4 122 9 130 10 9 2 74 6 145 10 72 4 137 9 145 10 9 2 70 6 135 10 66 3
131 8 145 10 14 2 77 7 140 10 63 4 126 8 140 10 14 2 72 7 130 10 218 14 361
76 501 215 71 71 93 101 132 180 99 201 104 422 13 615 -89 188 -245 323 -446
387 -108 33 -292 33 -400 0 -84 -27 -158 -62 -210 -101 -31 -22 -146 -117
-160 -131 -3 -3 -32 -27 -65 -55 -33 -27 -62 -52 -65 -55 -4 -5 -358 -304
-619 -525 -13 -11 -29 -25 -35 -30 -6 -6 -38 -33 -71 -60 -33 -28 -65 -55 -71
-61 -6 -5 -31 -26 -54 -45 -24 -18 -58 -46 -75 -62 -18 -15 -35 -27 -38 -27
-5 0 -23 66 -36 140 -6 30 -13 69 -17 85 -11 52 -13 377 -3 455 69 543 386
1020 859 1292 156 89 347 161 518 194 42 8 93 18 112 22 81 16 511 5 541 -14
4 -2 24 -6 45 -10 105 -17 284 -79 419 -146 151 -75 357 -224 453 -328 77 -82
101 -110 132 -150 19 -25 37 -47 40 -50 3 -3 30 -43 59 -89 121 -190 222 -455
247 -644 3 -23 10 -59 14 -81 9 -42 6 -389 -4 -446 -49 -285 -135 -507 -280
-725 -41 -60 -102 -141 -137 -179 -35 -38 -65 -72 -67 -77 -2 -4 128 -139 288
-299 l291 -291 32 34 c198 212 329 398 447 636 78 155 164 385 185 491 2 8 10
42 18 75 9 33 18 76 21 95 3 19 8 46 11 60 38 182 41 574 6 805 -34 220 -102
451 -196 664 -55 124 -124 250 -206 371 -268 402 -644 719 -1095 922 -151 69
-410 149 -554 172 -19 3 -46 8 -60 11 -14 3 -47 8 -75 11 -27 3 -61 8 -75 11
-26 6 -445 14 -451 9z"/>
<path d="M2101 3933 c-32 -28 -36 -76 -7 -110 l24 -27 442 0 442 0 25 28 c29
34 26 82 -8 109 -19 16 -57 17 -459 17 -402 0 -439 -1 -459 -17z"/>
<path d="M2325 3672 c-66 -13 -81 -96 -26 -139 22 -17 499 -17 522 0 42 32 46
89 7 123 -17 17 -43 18 -251 19 -128 0 -241 -1 -252 -3z"/>
<path d="M2415 1213 c-46 -24 -82 -67 -96 -112 -7 -25 -18 -41 -28 -42 -9 0
-52 -1 -96 -1 -181 0 -304 -83 -348 -234 -22 -76 -17 -524 6 -578 55 -126 230
-162 331 -68 49 47 66 101 66 213 0 107 9 139 40 139 19 0 20 -8 20 -265 l0
-265 390 0 390 0 0 542 c0 532 0 543 -21 586 -13 26 -38 54 -62 70 l-41 27
-260 2 c-222 2 -265 0 -291 -14z m453 -227 c40 -13 50 -50 50 -190 0 -129 0
-130 -28 -158 l-28 -28 -154 0 c-84 0 -163 3 -174 6 -44 12 -56 57 -52 201 3
146 9 160 67 172 42 8 290 6 319 -3z m-560 -188 l3 -106 -38 -7 c-21 -4 -55
-16 -76 -28 -41 -23 -96 -97 -98 -131 -1 -12 -2 -65 -3 -118 -2 -58 -7 -103
-15 -111 -20 -25 -51 -27 -72 -6 -18 18 -19 35 -19 255 l0 237 27 43 c15 23
39 48 53 55 28 13 122 25 190 23 l45 -1 3 -105z"/>
</g>
</svg>
