<svg version="1.0" xmlns="http://www.w3.org/2000/svg" width="682.667" height="682.667" viewBox="0 0 512 512"><path d="M237.9.4c-.2.2-4 .6-8.3 1-4.4.4-8.2.9-8.5 1.1-.4.2-3.4.7-6.6 1-8.6 1-31.2 6.8-43.4 11-71 24.8-128.8 81.5-154.9 152-3.9 10.5-8.6 26.1-9.6 31.5-.2 1.4-.9 4.6-1.5 7.1s-1.3 6.1-1.5 8c-.3 1.9-.7 5-1 6.9-3.7 21.7-2.8 57.7 1.9 83 9.2 49.6 33.2 96.1 67.8 131.1l2.8 2.8 27.7-27.7c15.2-15.3 28.3-28.5 29-29.5 1.2-1.4.6-2.5-5.2-8.9-3.6-4-8.4-9.8-10.5-12.8-5.1-7.1-12.4-19-11.9-19.5.2-.2 5.3-.7 11.3-1 6.1-.4 12.6-.8 14.5-1 1.9-.2 8.7-.7 15-1 6.3-.4 12.2-.9 13-1 .9-.2 7.4-.6 14.5-1 7.2-.4 13.7-.9 14.5-1 .9-.2 7-.6 13.5-1 6.6-.3 13.1-.8 14.5-1 1.4-.2 7.7-.7 14-1 6.3-.4 12.6-.8 14-1 1.4-.2 7.2-.7 13-1 21.8-1.4 36.1-7.6 50.1-21.5 7.1-7.1 9.3-10.1 13.2-18 9.9-20.1 10.4-42.2 1.3-61.5-8.9-18.8-24.5-32.3-44.6-38.7-10.8-3.3-29.2-3.3-40 0-8.4 2.7-15.8 6.2-21 10.1-3.1 2.2-14.6 11.7-16 13.1-.3.3-3.2 2.7-6.5 5.5-3.3 2.7-6.2 5.2-6.5 5.5-.4.5-35.8 30.4-61.9 52.5-1.3 1.1-2.9 2.5-3.5 3-.6.6-3.8 3.3-7.1 6-3.3 2.8-6.5 5.5-7.1 6.1-.6.5-3.1 2.6-5.4 4.5-2.4 1.8-5.8 4.6-7.5 6.2-1.8 1.5-3.5 2.7-3.8 2.7-.5 0-2.3-6.6-3.6-14-.6-3-1.3-6.9-1.7-8.5-1.1-5.2-1.3-37.7-.3-45.5 6.9-54.3 38.6-102 85.9-129.2 15.6-8.9 34.7-16.1 51.8-19.4 4.2-.8 9.3-1.8 11.2-2.2 8.1-1.6 51.1-.5 54.1 1.4.4.2 2.4.6 4.5 1 10.5 1.7 28.4 7.9 41.9 14.6 15.1 7.5 35.7 22.4 45.3 32.8 7.7 8.2 10.1 11 13.2 15 1.9 2.5 3.7 4.7 4 5 .3.3 3 4.3 5.9 8.9 12.1 19 22.2 45.5 24.7 64.4.3 2.3 1 5.9 1.4 8.1.9 4.2.6 38.9-.4 44.6-4.9 28.5-13.5 50.7-28 72.5-4.1 6-10.2 14.1-13.7 17.9-3.5 3.8-6.5 7.2-6.7 7.7-.2.4 12.8 13.9 28.8 29.9l29.1 29.1 3.2-3.4c19.8-21.2 32.9-39.8 44.7-63.6 7.8-15.5 16.4-38.5 18.5-49.1.2-.8 1-4.2 1.8-7.5.9-3.3 1.8-7.6 2.1-9.5.3-1.9.8-4.6 1.1-6 3.8-18.2 4.1-57.4.6-80.5-3.4-22-10.2-45.1-19.6-66.4-5.5-12.4-12.4-25-20.6-37.1-26.8-40.2-64.4-71.9-109.5-92.2-15.1-6.9-41-14.9-55.4-17.2-1.9-.3-4.6-.8-6-1.1-1.4-.3-4.7-.8-7.5-1.1-2.7-.3-6.1-.8-7.5-1.1-2.6-.6-44.5-1.4-45.1-.9z"/><path d="M210.1 118.7c-3.2 2.8-3.6 7.6-.7 11l2.4 2.7h88.4l2.5-2.8c2.9-3.4 2.6-8.2-.8-10.9-1.9-1.6-5.7-1.7-45.9-1.7-40.2 0-43.9.1-45.9 1.7zm22.4 26.1c-6.6 1.3-8.1 9.6-2.6 13.9 2.2 1.7 49.9 1.7 52.2 0 4.2-3.2 4.6-8.9.7-12.3-1.7-1.7-4.3-1.8-25.1-1.9-12.8 0-24.1.1-25.2.3zm9 245.9c-4.6 2.4-8.2 6.7-9.6 11.2-.7 2.5-1.8 4.1-2.8 4.2-.9 0-5.2.1-9.6.1-18.1 0-30.4 8.3-34.8 23.4-2.2 7.6-1.7 52.4.6 57.8 5.5 12.6 23 16.2 33.1 6.8 4.9-4.7 6.6-10.1 6.6-21.3 0-10.7.9-13.9 4-13.9 1.9 0 2 .8 2 26.5V512h78v-54.2c0-53.2 0-54.3-2.1-58.6-1.3-2.6-3.8-5.4-6.2-7l-4.1-2.7-26-.2c-22.2-.2-26.5 0-29.1 1.4zm45.3 22.7c4 1.3 5 5 5 19 0 12.9 0 13-2.8 15.8l-2.8 2.8h-15.4c-8.4 0-16.3-.3-17.4-.6-4.4-1.2-5.6-5.7-5.2-20.1.3-14.6.9-16 6.7-17.2 4.2-.8 29-.6 31.9.3zm-56 18.8l.3 10.6-3.8.7c-2.1.4-5.5 1.6-7.6 2.8-4.1 2.3-9.6 9.7-9.8 13.1-.1 1.2-.2 6.5-.3 11.8-.2 5.8-.7 10.3-1.5 11.1-2 2.5-5.1 2.7-7.2.6-1.8-1.8-1.9-3.5-1.9-25.5v-23.7l2.7-4.3c1.5-2.3 3.9-4.8 5.3-5.5 2.8-1.3 12.2-2.5 19-2.3l4.5.1.3 10.5z"/></svg>