<svg width="56" height="75" fill="none" xmlns="http://www.w3.org/2000/svg"><path d="M.88 69c-.053 0-.08-.033-.08-.1l.04-13.74c0-.053.027-.08.08-.08h4.04c.72 0 1.38.18 1.98.54.613.347 1.1.82 1.46 1.42.36.587.54 1.253.54 2 0 .493-.073.94-.22 1.34-.147.387-.32.72-.52 1-.2.267-.38.467-.54.6.72.8 1.08 1.74 1.08 2.82l.02 4.1c0 .067-.033.1-.1.1H6.4c-.053 0-.08-.02-.08-.06V64.8c0-.48-.173-.893-.52-1.24a1.622 1.622 0 00-1.24-.54H3.24l-.02 5.88c0 .067-.027.1-.08.1H.88zm2.36-8.38h1.72c.413 0 .78-.153 1.1-.46.32-.307.48-.68.48-1.12 0-.427-.16-.793-.48-1.1a1.5 1.5 0 00-1.1-.46H3.24v3.14zM10.528 69c-.053 0-.08-.033-.08-.1l.02-13.74c0-.053.027-.08.08-.08h6.42c.054 0 .08.033.08.1v2.24c0 .053-.026.08-.08.08h-4.1v3.12h4.1c.054 0 .08.027.08.08l.02 2.26c0 .053-.026.08-.08.08h-4.12v3.5h4.12c.054 0 .08.033.08.1v2.28c0 .053-.026.08-.08.08h-6.46zm11.686.2c-.733 0-1.4-.18-2-.54a4.14 4.14 0 01-1.4-1.48 4.119 4.119 0 01-.52-2.06l.02-6.24c0-.733.167-1.4.5-2 .347-.613.814-1.1 1.4-1.46a3.71 3.71 0 012-.56c.734 0 1.394.18 1.98.54a3.98 3.98 0 011.4 1.46c.347.6.52 1.273.52 2.02v.92c0 .053-.026.08-.08.08h-2.24c-.053 0-.08-.027-.08-.08v-.92c0-.44-.146-.82-.44-1.14-.28-.32-.633-.48-1.06-.48-.48 0-.846.167-1.1.5-.253.32-.38.693-.38 1.12v6.24c0 .493.14.893.42 1.2.294.307.647.46 1.06.46.427 0 .78-.167 1.06-.5.294-.347.44-.733.44-1.16v-.92c0-.053.027-.08.08-.08h2.26c.054 0 .08.027.08.08v.92c0 .76-.18 1.447-.54 2.06a4.142 4.142 0 01-1.4 1.48 3.71 3.71 0 01-1.98.54zm9.083 0c-.72 0-1.38-.18-1.98-.54a4.373 4.373 0 01-1.42-1.46 3.918 3.918 0 01-.54-2.02l.02-6.34c0-.733.173-1.4.52-2 .36-.6.84-1.08 1.44-1.44a3.74 3.74 0 011.96-.54c.72 0 1.373.18 1.96.54.587.36 1.053.84 1.4 1.44.36.6.54 1.267.54 2l.02 6.34c0 .733-.18 1.407-.54 2.02-.347.6-.82 1.087-1.42 1.46-.587.36-1.24.54-1.96.54zm0-2.42c.4 0 .747-.16 1.04-.48.306-.333.46-.707.46-1.12l-.02-6.34c0-.44-.14-.813-.42-1.12a1.374 1.374 0 00-1.06-.46c-.413 0-.767.153-1.06.46-.293.293-.44.667-.44 1.12v6.34c0 .44.146.82.44 1.14.293.307.647.46 1.06.46zm5.52 2.22c-.053 0-.08-.033-.08-.1l.04-13.74c0-.053.027-.08.08-.08h4.04c.72 0 1.38.18 1.98.54.614.347 1.1.82 1.46 1.42.36.587.54 1.253.54 2 0 .493-.073.94-.22 1.34-.146.387-.32.72-.52 1-.2.267-.38.467-.54.6.72.8 1.08 1.74 1.08 2.82l.02 4.1c0 .067-.033.1-.1.1h-2.26c-.053 0-.08-.02-.08-.06V64.8c0-.48-.173-.893-.52-1.24a1.622 1.622 0 00-1.24-.54h-1.32l-.02 5.88c0 .067-.026.1-.08.1h-2.26zm2.36-8.38h1.72c.414 0 .78-.153 1.1-.46.32-.307.48-.68.48-1.12 0-.427-.16-.793-.48-1.1a1.5 1.5 0 00-1.1-.46h-1.72v3.14zM46.486 69c-.067 0-.1-.033-.1-.1l.04-13.74c0-.053.027-.08.08-.08l3.74-.02c.733-.013 1.4.16 2 .52.613.36 1.1.847 1.46 1.46.36.6.54 1.267.54 2v5.74a4.13 4.13 0 01-.56 2.12 4.253 4.253 0 01-1.5 1.5c-.627.373-1.333.567-2.12.58l-3.58.02zm2.34-2.46h1.24a1.65 1.65 0 001.24-.52c.347-.347.52-.76.52-1.24v-5.76c0-.427-.16-.793-.48-1.1a1.405 1.405 0 00-1.1-.46l-1.4.02-.02 9.06zM45.044 7.956a2.07 2.07 0 00-2.63-.247c-3.098 2.112-18.636 12.73-20.306 14.4a6.218 6.218 0 000 8.783 6.192 6.192 0 004.392 1.816c1.59 0 3.181-.605 4.392-1.816 1.67-1.67 12.287-17.208 14.399-20.306a2.07 2.07 0 00-.247-2.63zm-17.08 20.008a2.072 2.072 0 01-2.928 0 2.072 2.072 0 010-2.927c.649-.642 5.06-3.788 10.488-7.56-3.773 5.427-6.92 9.838-7.56 10.487z" fill="#2F3035"/><path d="M9.547 36.13l-2.555 1.246a22.251 22.251 0 01-1.396-18.814l2.929 1.405a2.07 2.07 0 001.79-3.733l-2.891-1.387c3.594-5.862 9.812-9.948 17.006-10.611V7.35a2.07 2.07 0 104.14 0V4.234a22.14 22.14 0 017.12 1.875 2.07 2.07 0 001.703-3.773A26.299 26.299 0 0026.5 0C19.422 0 12.767 2.756 7.762 7.762 2.757 12.767 0 19.422 0 26.5c0 5.23 1.553 10.318 4.49 14.711a2.07 2.07 0 002.629.71l4.244-2.07a2.07 2.07 0 10-1.816-3.722zm41.117-20.523a2.07 2.07 0 10-3.773 1.704 22.181 22.181 0 011.968 9.189c0 3.82-.984 7.55-2.86 10.892l-2.668-1.27a2.07 2.07 0 00-1.78 3.738l4.348 2.07a2.07 2.07 0 002.611-.719C51.448 36.818 53 31.731 53 26.5c0-3.795-.786-7.46-2.336-10.893z" fill="#2F3035"/></svg>