<svg width="54" height="16" fill="none" xmlns="http://www.w3.org/2000/svg"><path d="M.247 15c-.053 0-.08-.033-.08-.1l.04-13.74c0-.053.027-.08.08-.08h4.04c.72 0 1.38.18 1.98.54.614.347 1.1.82 1.46 1.42.36.587.54 1.253.54 2 0 .493-.073.94-.22 1.34-.146.387-.32.72-.52 1-.2.267-.38.467-.54.6.72.8 1.08 1.74 1.08 2.82l.02 4.1c0 .067-.033.1-.1.1h-2.26c-.053 0-.08-.02-.08-.06V10.8c0-.48-.173-.893-.52-1.24a1.622 1.622 0 00-1.24-.54h-1.32l-.02 5.88c0 .067-.026.1-.08.1H.247zm2.36-8.38h1.72c.414 0 .78-.153 1.1-.46.32-.307.48-.68.48-1.12 0-.427-.16-.793-.48-1.1a1.501 1.501 0 00-1.1-.46h-1.72v3.14zM9.896 15c-.054 0-.08-.033-.08-.1l.02-13.74c0-.053.026-.08.08-.08h6.42c.053 0 .08.033.08.1v2.24c0 .053-.027.08-.08.08h-4.1v3.12h4.1c.053 0 .08.027.08.08l.02 2.26c0 .053-.027.08-.08.08h-4.12v3.5h4.12c.053 0 .08.033.08.1v2.28c0 .053-.027.08-.08.08h-6.46zm11.686.2c-.734 0-1.4-.18-2-.54a4.14 4.14 0 01-1.4-1.48c-.347-.613-.52-1.3-.52-2.06l.02-6.24c0-.733.166-1.4.5-2 .346-.613.813-1.1 1.4-1.46a3.71 3.71 0 012-.56c.733 0 1.393.18 1.98.54.586.36 1.053.847 1.4 1.46.346.6.52 1.273.52 2.02v.92c0 .053-.027.08-.08.08h-2.24c-.054 0-.08-.027-.08-.08v-.92c0-.44-.147-.82-.44-1.14a1.35 1.35 0 00-1.06-.48c-.48 0-.847.167-1.1.5-.254.32-.38.693-.38 1.12v6.24c0 .493.14.893.42 1.2.293.307.646.46 1.06.46.426 0 .78-.167 1.06-.5.293-.347.44-.733.44-1.16v-.92c0-.053.026-.08.08-.08h2.26c.053 0 .08.027.08.08v.92c0 .76-.18 1.447-.54 2.06a4.142 4.142 0 01-1.4 1.48 3.71 3.71 0 01-1.98.54zm9.082 0c-.72 0-1.38-.18-1.98-.54a4.373 4.373 0 01-1.42-1.46 3.918 3.918 0 01-.54-2.02l.02-6.34c0-.733.173-1.4.52-2 .36-.6.84-1.08 1.44-1.44a3.74 3.74 0 011.96-.54c.72 0 1.373.18 1.96.54.587.36 1.053.84 1.4 1.44.36.6.54 1.267.54 2l.02 6.34c0 .733-.18 1.407-.54 2.02-.347.6-.82 1.087-1.42 1.46-.587.36-1.24.54-1.96.54zm0-2.42c.4 0 .747-.16 1.04-.48.307-.333.46-.707.46-1.12l-.02-6.34c0-.44-.14-.813-.42-1.12a1.374 1.374 0 00-1.06-.46c-.413 0-.767.153-1.06.46-.293.293-.44.667-.44 1.12v6.34c0 .44.147.82.44 1.14.293.307.647.46 1.06.46zm5.52 2.22c-.053 0-.08-.033-.08-.1l.04-13.74c0-.053.027-.08.08-.08h4.04c.72 0 1.38.18 1.98.54.614.347 1.1.82 1.46 1.42.36.587.54 1.253.54 2 0 .493-.073.94-.22 1.34-.146.387-.32.72-.52 1-.2.267-.38.467-.54.6.72.8 1.08 1.74 1.08 2.82l.02 4.1c0 .067-.033.1-.1.1h-2.26c-.053 0-.08-.02-.08-.06V10.8c0-.48-.173-.893-.52-1.24a1.622 1.622 0 00-1.24-.54h-1.32l-.02 5.88c0 .067-.026.1-.08.1h-2.26zm2.36-8.38h1.72c.414 0 .78-.153 1.1-.46.32-.307.48-.68.48-1.12 0-.427-.16-.793-.48-1.1a1.501 1.501 0 00-1.1-.46h-1.72v3.14zm7.31 8.38c-.068 0-.1-.033-.1-.1l.04-13.74c0-.053.026-.08.08-.08l3.74-.02c.733-.013 1.4.16 2 .52.613.36 1.1.847 1.46 1.46.36.6.54 1.267.54 2v5.74a4.13 4.13 0 01-.56 2.12 4.253 4.253 0 01-1.5 1.5 4.212 4.212 0 01-2.12.58l-3.58.02zm2.34-2.46h1.24a1.65 1.65 0 001.24-.52c.346-.347.52-.76.52-1.24V5.02c0-.427-.16-.793-.48-1.1a1.405 1.405 0 00-1.1-.46l-1.4.02-.02 9.06z" fill="#2F3035"/></svg>